{"glyphs":{"0":{"ha":1079,"x_min":79,"x_max":1000,"o":"m 539 0 q 307 63 413 0 q 140 236 201 125 q 79 486 79 347 q 140 736 79 625 q 307 910 201 847 q 539 972 413 972 q 772 910 667 972 q 939 736 878 847 q 1000 486 1000 625 q 939 236 1000 347 q 772 63 878 125 q 539 0 667 0 m 539 158 q 694 200 625 158 q 802 317 763 242 q 842 486 842 392 q 802 656 842 581 q 694 772 763 731 q 539 814 625 814 q 385 772 454 814 q 277 656 317 731 q 238 486 238 581 q 277 317 238 392 q 385 200 317 242 q 539 158 454 158 z "},"1":{"ha":664,"x_min":43,"x_max":519,"o":"m 519 972 l 519 0 l 361 0 l 361 732 l 153 525 l 43 638 l 381 972 l 519 972 z "},"2":{"ha":768,"x_min":47,"x_max":689,"o":"m 47 760 q 181 913 97 854 q 374 972 265 972 q 535 933 463 972 q 648 825 607 894 q 689 668 689 756 q 661 532 689 596 q 585 419 633 468 l 325 158 l 689 158 l 689 0 l 78 0 l 78 132 l 465 521 q 531 660 531 586 q 485 771 531 728 q 374 814 440 814 q 256 772 310 814 q 169 657 203 729 l 47 760 z "},"3":{"ha":750,"x_min":57,"x_max":667,"o":"m 58 783 q 177 919 96 865 q 361 972 258 972 q 518 938 449 972 q 627 842 588 904 q 667 700 667 779 q 634 572 667 628 q 547 488 601 517 q 635 401 603 458 q 667 271 667 344 q 628 126 667 188 q 520 33 589 65 q 364 0 451 0 q 174 53 257 0 q 57 194 92 107 l 178 307 q 248 199 199 239 q 365 158 297 158 q 469 192 429 158 q 508 285 508 226 q 470 374 508 342 q 371 408 432 406 l 306 408 l 306 565 l 371 565 q 469 601 431 568 q 508 689 508 633 q 468 780 508 746 q 365 814 428 814 q 250 774 300 814 q 178 669 200 733 l 58 783 z "},"4":{"ha":932,"x_min":42,"x_max":892,"o":"m 722 972 l 722 335 l 892 335 l 892 176 l 722 176 l 722 0 l 564 0 l 564 176 l 42 176 l 42 317 l 590 972 l 722 972 m 564 693 l 265 335 l 564 335 l 564 693 z "},"5":{"ha":767,"x_min":67,"x_max":700,"o":"m 356 0 q 202 24 279 0 q 67 93 125 49 l 139 235 q 246 178 190 197 q 356 158 301 158 q 490 203 438 158 q 542 331 542 249 q 488 456 542 411 q 342 500 435 500 q 237 488 294 500 q 125 456 179 476 l 125 972 l 700 972 l 700 814 l 283 814 l 283 649 q 364 657 325 657 q 542 617 467 657 q 659 503 618 576 q 700 331 700 429 q 654 151 700 226 q 530 38 608 76 q 356 0 451 0 z "},"6":{"ha":807,"x_min":81,"x_max":742,"o":"m 418 0 q 260 36 329 0 q 146 140 190 72 q 81 436 81 244 q 127 721 81 600 q 260 907 174 842 q 465 972 347 972 q 694 904 590 972 l 622 767 q 458 814 542 814 q 317 752 374 814 q 253 589 260 690 q 337 631 292 615 q 426 646 382 646 q 590 605 518 646 q 701 492 661 564 q 742 328 742 419 q 700 159 742 233 q 585 42 658 85 q 418 0 511 0 m 415 158 q 536 205 489 158 q 583 325 583 251 q 538 443 583 399 q 417 488 492 488 q 294 442 342 488 q 247 322 247 396 q 294 204 247 250 q 415 158 342 158 z "},"7":{"ha":753,"x_min":54,"x_max":706,"o":"m 96 0 l 518 814 l 54 814 l 54 972 l 706 972 l 706 832 l 274 0 l 96 0 z "},"8":{"ha":764,"x_min":79,"x_max":685,"o":"m 382 0 q 224 33 293 0 q 117 128 156 67 q 79 269 79 189 q 199 486 79 415 q 110 574 142 519 q 79 703 79 629 q 117 844 79 783 q 224 939 156 906 q 382 972 293 972 q 540 939 471 972 q 647 844 608 906 q 685 704 685 783 q 653 579 685 635 q 563 486 622 524 q 685 268 685 410 q 647 128 685 189 q 540 33 608 67 q 382 0 471 0 m 383 565 q 485 599 444 565 q 526 692 526 633 q 488 781 526 747 q 383 814 449 814 q 278 781 318 814 q 238 692 238 747 q 280 599 238 633 q 383 565 322 565 m 383 158 q 488 192 449 158 q 526 281 526 225 q 485 373 526 339 q 383 407 444 407 q 280 373 322 407 q 238 281 238 339 q 278 192 238 225 q 383 158 318 158 z "},"9":{"ha":796,"x_min":69,"x_max":731,"o":"m 343 0 q 227 14 283 0 q 110 58 171 28 l 169 203 q 346 158 263 158 q 495 220 438 158 q 557 385 553 282 q 385 326 478 326 q 222 367 293 326 q 110 479 150 407 q 69 643 69 551 q 112 813 69 738 q 229 930 154 888 q 399 972 304 972 q 547 940 481 972 q 657 844 614 907 q 713 713 694 790 q 731 528 731 636 q 632 135 731 269 q 343 0 533 0 m 394 485 q 518 531 471 485 q 565 650 565 576 q 517 768 565 722 q 396 814 469 814 q 274 767 321 814 q 228 647 228 721 q 274 530 228 575 q 394 485 321 485 z "}," ":{"ha":399,"x_min":0,"x_max":0,"o":""},"A":{"ha":1082,"x_min":13,"x_max":1069,"o":"m 896 0 l 817 169 l 264 169 l 186 0 l 13 0 l 464 972 l 618 972 l 1069 0 l 896 0 m 338 328 l 743 328 l 540 765 l 338 328 z "},"B":{"ha":853,"x_min":107,"x_max":797,"o":"m 107 972 l 517 972 q 663 938 599 972 q 762 841 726 903 q 797 700 797 779 q 765 573 797 629 q 678 486 733 517 q 765 399 733 456 q 797 272 797 343 q 762 131 797 193 q 663 35 726 69 q 517 0 599 0 l 107 0 l 107 972 m 518 565 q 605 601 571 565 q 639 693 639 638 q 605 781 639 747 q 515 814 571 814 l 265 814 l 265 565 l 518 565 m 515 158 q 605 191 571 158 q 639 279 639 224 q 605 371 639 335 q 518 407 571 407 l 265 407 l 265 158 l 515 158 z "},"C":{"ha":929,"x_min":65,"x_max":907,"o":"m 65 488 q 129 735 65 624 q 305 909 193 846 q 553 972 417 972 q 897 840 747 972 l 822 693 q 698 783 764 751 q 550 814 632 814 q 383 772 457 814 q 266 656 308 731 q 224 486 224 582 q 266 316 224 390 q 381 200 308 242 q 546 158 454 158 q 832 282 711 158 l 907 133 q 547 0 758 0 q 303 64 414 0 q 129 240 193 128 q 65 488 65 351 z "},"D":{"ha":982,"x_min":107,"x_max":931,"o":"m 107 972 l 450 972 q 696 909 586 972 q 868 735 806 846 q 931 486 931 625 q 868 237 931 347 q 696 63 806 126 q 450 0 586 0 l 107 0 l 107 972 m 450 158 q 617 201 543 158 q 731 317 690 243 q 772 486 772 392 q 731 655 772 581 q 617 772 690 729 q 450 814 543 814 l 265 814 l 265 158 l 450 158 z "},"E":{"ha":796,"x_min":107,"x_max":719,"o":"m 107 0 l 107 972 l 719 972 l 719 814 l 265 814 l 265 565 l 719 565 l 719 407 l 265 407 l 265 158 l 719 158 l 719 0 l 107 0 z "},"F":{"ha":771,"x_min":107,"x_max":719,"o":"m 107 0 l 107 972 l 719 972 l 719 814 l 265 814 l 265 565 l 719 565 l 719 407 l 265 407 l 265 0 l 107 0 z "},"G":{"ha":1043,"x_min":51,"x_max":1008,"o":"m 51 485 q 114 735 51 624 q 289 909 176 846 q 543 972 401 972 q 732 938 644 972 q 890 838 819 903 l 815 689 q 536 814 697 814 q 367 772 442 814 q 251 656 293 731 q 210 486 210 582 q 251 315 210 389 q 368 199 293 240 q 539 157 443 157 q 730 218 650 157 q 826 382 810 279 l 503 382 l 503 540 l 1008 540 l 1008 507 q 950 239 1008 354 q 787 62 892 124 q 546 0 682 0 q 290 63 403 0 q 115 237 178 126 q 51 485 51 347 z "},"H":{"ha":1024,"x_min":107,"x_max":917,"o":"m 107 0 l 107 972 l 265 972 l 265 565 l 758 565 l 758 972 l 917 972 l 917 0 l 758 0 l 758 407 l 265 407 l 265 0 l 107 0 z "},"I":{"ha":372,"x_min":107,"x_max":265,"o":"m 107 0 l 107 972 l 265 972 l 265 0 l 107 0 z "},"J":{"ha":706,"x_min":19,"x_max":613,"o":"m 315 0 q 152 41 219 0 q 52 148 85 82 q 19 288 19 214 l 164 356 q 202 213 164 267 q 317 158 240 158 q 420 202 386 158 q 454 321 454 246 l 454 972 l 613 972 l 613 321 q 532 85 613 171 q 315 0 451 0 z "},"K":{"ha":938,"x_min":107,"x_max":935,"o":"m 107 0 l 107 972 l 265 972 l 265 524 l 710 972 l 933 972 l 513 547 l 935 0 l 733 0 l 400 435 l 265 299 l 265 0 l 107 0 z "},"L":{"ha":744,"x_min":107,"x_max":728,"o":"m 107 0 l 107 972 l 265 972 l 265 158 l 728 158 l 728 0 l 107 0 z "},"M":{"ha":1401,"x_min":107,"x_max":1294,"o":"m 107 0 l 107 972 l 263 972 l 701 206 l 1139 972 l 1294 972 l 1294 0 l 1136 0 l 1136 643 l 768 0 l 633 0 l 265 643 l 265 0 l 107 0 z "},"N":{"ha":1093,"x_min":107,"x_max":986,"o":"m 107 0 l 107 972 l 253 972 l 828 264 l 828 972 l 986 972 l 986 0 l 840 0 l 265 707 l 265 0 l 107 0 z "},"O":{"ha":1075,"x_min":51,"x_max":1024,"o":"m 538 0 q 289 63 400 0 q 115 238 178 126 q 51 486 51 349 q 115 735 51 624 q 289 909 178 846 q 538 972 400 972 q 786 909 675 972 q 960 735 897 846 q 1024 486 1024 624 q 960 238 1024 349 q 786 63 897 126 q 538 0 675 0 m 538 158 q 706 201 632 158 q 823 317 781 243 q 865 486 865 392 q 823 655 865 581 q 706 772 781 729 q 538 814 632 814 q 369 772 443 814 q 252 655 294 729 q 210 486 210 581 q 252 317 210 392 q 369 201 294 243 q 538 158 443 158 z "},"P":{"ha":842,"x_min":107,"x_max":804,"o":"m 107 972 l 469 972 q 642 929 565 972 q 761 810 718 886 q 804 639 804 733 q 761 467 804 543 q 642 349 718 392 q 469 306 565 306 l 265 306 l 265 0 l 107 0 l 107 972 m 469 464 q 596 513 546 464 q 646 639 646 563 q 596 765 646 715 q 469 814 546 814 l 265 814 l 265 464 l 469 464 z "},"Q":{"ha":1135,"x_min":51,"x_max":1171,"o":"m 821 86 q 538 0 697 0 q 289 63 400 0 q 115 238 178 126 q 51 486 51 349 q 115 735 51 624 q 289 909 178 846 q 538 972 400 972 q 786 909 675 972 q 960 735 897 846 q 1024 486 1024 624 q 1000 330 1024 404 q 933 196 976 256 l 1171 -43 l 1061 -156 l 821 86 m 538 158 q 704 203 632 158 l 460 447 l 569 560 l 815 314 q 865 486 865 385 q 823 655 865 581 q 706 772 781 729 q 538 814 632 814 q 369 772 443 814 q 252 655 294 729 q 210 486 210 581 q 252 317 210 392 q 369 201 294 243 q 538 158 443 158 z "},"R":{"ha":868,"x_min":107,"x_max":840,"o":"m 643 0 l 413 350 l 265 350 l 265 0 l 107 0 l 107 972 l 496 972 q 658 932 586 972 q 772 821 731 892 q 813 661 813 750 q 752 472 813 551 q 590 364 692 392 l 840 0 l 643 0 m 265 508 l 496 508 q 610 551 567 508 q 654 661 654 593 q 610 772 654 729 q 496 814 567 814 l 265 814 l 265 508 z "},"S":{"ha":736,"x_min":54,"x_max":682,"o":"m 371 0 q 165 63 247 0 q 54 239 82 126 l 197 301 q 258 194 215 229 q 372 158 301 158 q 476 188 439 158 q 513 271 513 217 q 493 333 513 308 q 439 374 474 357 q 333 415 404 390 q 194 477 251 444 q 100 565 136 510 q 64 700 64 619 q 147 898 64 824 q 364 972 229 972 q 571 909 488 972 q 682 733 654 846 l 539 671 q 364 814 504 814 q 260 785 297 814 q 222 701 222 756 q 242 640 222 664 q 297 599 261 615 q 403 557 332 582 q 542 495 485 528 q 635 408 599 463 q 671 272 671 353 q 589 74 671 149 q 371 0 507 0 z "},"T":{"ha":907,"x_min":7,"x_max":900,"o":"m 375 0 l 375 814 l 7 814 l 7 972 l 900 972 l 900 814 l 533 814 l 533 0 l 375 0 z "},"U":{"ha":1075,"x_min":89,"x_max":986,"o":"m 538 0 q 309 58 411 0 q 148 217 207 115 q 89 447 89 319 l 89 972 l 247 972 l 247 447 q 285 298 247 364 q 390 195 324 232 q 538 158 456 158 q 685 195 619 158 q 790 298 751 232 q 828 447 828 364 l 828 972 l 986 972 l 986 447 q 928 217 986 319 q 767 58 869 115 q 538 0 664 0 z "},"V":{"ha":1060,"x_min":3,"x_max":1057,"o":"m 464 0 l 3 972 l 178 972 l 531 229 l 881 972 l 1057 972 l 596 0 l 464 0 z "},"W":{"ha":1708,"x_min":14,"x_max":1694,"o":"m 396 0 l 14 972 l 185 972 l 467 253 l 776 972 l 931 972 l 1242 253 l 1524 972 l 1694 972 l 1313 0 l 1178 0 l 854 747 l 531 0 l 396 0 z "},"X":{"ha":1024,"x_min":17,"x_max":1007,"o":"m 17 0 l 410 486 l 17 972 l 221 972 l 513 613 l 804 972 l 1007 972 l 614 486 l 1007 0 l 803 0 l 513 360 l 221 0 l 17 0 z "},"Y":{"ha":951,"x_min":3,"x_max":949,"o":"m 396 0 l 396 394 l 3 972 l 194 972 l 475 560 l 757 972 l 949 972 l 554 394 l 554 0 l 396 0 z "},"Z":{"ha":878,"x_min":46,"x_max":832,"o":"m 46 0 l 46 117 l 596 814 l 46 814 l 46 972 l 832 972 l 832 856 l 282 158 l 832 158 l 832 0 l 46 0 z "},"a":{"ha":731,"x_min":53,"x_max":658,"o":"m 74 544 q 176 669 101 626 q 368 711 251 711 q 658 440 658 711 l 658 0 l 508 0 l 508 96 q 416 15 472 43 q 288 -14 360 -14 q 117 46 182 -14 q 53 201 53 106 q 113 349 53 292 q 275 417 172 407 l 468 436 q 499 445 490 438 q 508 468 508 453 l 508 483 q 472 551 508 528 q 371 575 436 575 q 253 547 299 575 q 194 468 207 519 l 74 544 m 308 296 q 235 267 261 290 q 208 206 208 243 q 239 140 208 164 q 322 117 269 117 q 455 164 401 117 q 508 281 508 211 l 508 321 l 308 296 z "},"b":{"ha":843,"x_min":89,"x_max":803,"o":"m 239 594 q 479 711 331 711 q 647 665 574 711 q 762 537 721 619 q 803 347 803 454 q 762 158 803 240 q 647 29 721 75 q 478 -17 572 -17 q 342 13 403 -17 q 239 99 281 42 l 239 0 l 89 0 l 89 972 l 239 972 l 239 594 m 649 347 q 591 507 649 446 q 440 568 533 568 q 289 508 346 568 q 232 347 232 447 q 289 187 232 247 q 440 126 346 126 q 591 188 533 126 q 649 347 649 249 z "},"c":{"ha":694,"x_min":40,"x_max":668,"o":"m 40 346 q 87 535 40 453 q 217 665 133 618 q 408 711 301 711 q 665 610 564 711 l 575 492 q 404 565 494 565 q 253 505 311 565 q 194 347 194 444 q 253 190 194 251 q 403 129 311 129 q 582 206 501 129 l 668 86 q 550 10 618 36 q 403 -17 482 -17 q 214 29 296 -17 q 86 157 132 75 q 40 346 40 239 z "},"d":{"ha":843,"x_min":40,"x_max":754,"o":"m 754 0 l 603 0 l 603 99 q 501 13 563 43 q 365 -17 440 -17 q 197 29 271 -17 q 81 158 122 75 q 40 347 40 240 q 81 537 40 454 q 196 665 122 619 q 364 711 269 711 q 603 594 511 711 l 603 972 l 754 972 l 754 0 m 403 568 q 252 507 310 568 q 194 347 194 446 q 252 188 194 249 q 403 126 310 126 q 553 187 496 126 q 610 347 610 247 q 553 508 610 447 q 403 568 496 568 z "},"e":{"ha":767,"x_min":40,"x_max":726,"o":"m 40 344 q 83 531 40 447 q 206 663 126 614 q 389 711 285 711 q 571 665 494 711 q 687 535 647 618 q 726 344 726 451 l 726 301 l 193 301 l 193 300 q 263 169 203 215 q 401 124 322 124 q 610 214 522 124 l 681 93 q 563 14 632 44 q 403 -17 493 -17 q 211 28 293 -17 q 85 156 129 74 q 40 344 40 238 m 563 415 q 510 534 556 490 q 386 578 465 578 q 257 535 306 578 q 194 415 208 493 l 563 415 z "},"f":{"ha":553,"x_min":21,"x_max":532,"o":"m 324 0 l 174 0 l 174 567 l 21 567 l 21 694 l 174 694 l 174 732 q 238 924 174 863 q 411 986 301 986 q 532 975 451 986 l 532 836 q 435 847 469 847 q 349 819 375 847 q 324 722 324 790 l 324 694 l 524 694 l 524 567 l 324 567 l 324 0 z "},"g":{"ha":844,"x_min":40,"x_max":754,"o":"m 40 349 q 82 537 40 454 q 199 665 124 619 q 371 711 274 711 q 508 681 446 711 q 603 599 569 651 l 603 694 l 754 694 l 754 42 q 663 -210 754 -124 q 399 -296 572 -296 q 215 -262 292 -296 q 88 -156 139 -228 l 179 -44 q 400 -158 258 -158 q 607 46 607 -158 l 607 97 q 510 17 572 46 q 374 -11 449 -11 q 198 33 274 -11 q 81 159 122 78 q 40 349 40 240 m 610 347 q 554 508 610 449 q 406 568 499 568 q 253 507 311 568 q 194 347 194 446 q 253 188 194 249 q 406 126 311 126 q 554 186 499 126 q 610 347 610 246 z "},"h":{"ha":807,"x_min":89,"x_max":715,"o":"m 239 589 q 463 711 315 711 q 650 635 585 711 q 715 419 715 560 l 715 0 l 563 0 l 563 400 q 525 525 563 481 q 418 569 488 569 q 239 328 239 569 l 239 0 l 89 0 l 89 972 l 239 972 l 239 589 z "},"i":{"ha":346,"x_min":68,"x_max":279,"o":"m 249 694 l 249 0 l 99 0 l 99 694 l 249 694 m 174 789 q 98 819 128 789 q 68 894 68 849 q 98 970 68 940 q 174 1000 128 1000 q 249 970 219 1000 q 279 894 279 940 q 249 819 279 849 q 174 789 219 789 z "},"j":{"ha":369,"x_min":-46,"x_max":297,"o":"m 267 -28 q 198 -222 267 -160 q -18 -285 129 -285 q -46 -283 -35 -285 l -46 -142 l -33 -142 q 85 -112 54 -142 q 117 -19 117 -83 l 117 694 l 267 694 l 267 -28 m 192 789 q 116 819 146 789 q 86 894 86 849 q 116 970 86 940 q 192 1000 146 1000 q 267 970 238 1000 q 297 894 297 940 q 267 819 297 849 q 192 789 238 789 z "},"k":{"ha":740,"x_min":89,"x_max":729,"o":"m 328 292 l 239 203 l 239 0 l 89 0 l 89 972 l 239 972 l 239 392 l 525 694 l 729 694 l 429 393 l 729 0 l 535 0 l 328 292 z "},"l":{"ha":331,"x_min":89,"x_max":242,"o":"m 242 972 l 242 0 l 89 0 l 89 972 l 242 972 z "},"m":{"ha":1278,"x_min":89,"x_max":1188,"o":"m 675 578 q 922 711 757 711 q 1118 634 1049 711 q 1188 411 1188 557 l 1188 0 l 1036 0 l 1036 400 q 999 526 1036 483 q 892 569 963 569 q 713 328 713 569 l 713 0 l 563 0 l 563 400 q 525 526 563 483 q 417 569 488 569 q 239 328 239 569 l 239 0 l 89 0 l 89 694 l 235 694 l 235 586 q 453 711 301 711 q 588 678 532 711 q 675 578 644 644 z "},"n":{"ha":807,"x_min":89,"x_max":715,"o":"m 89 694 l 235 694 l 235 589 q 333 681 274 650 q 464 711 392 711 q 649 637 583 711 q 715 426 715 563 l 715 0 l 563 0 l 563 400 q 524 526 563 482 q 411 569 485 569 q 283 508 326 569 q 239 328 239 446 l 239 0 l 89 0 l 89 694 z "},"o":{"ha":817,"x_min":40,"x_max":776,"o":"m 40 347 q 88 535 40 451 q 220 665 136 618 q 408 711 304 711 q 597 665 513 711 q 728 535 681 618 q 776 347 776 451 q 728 160 776 243 q 597 30 681 76 q 408 -17 513 -17 q 220 30 304 -17 q 88 160 136 76 q 40 347 40 243 m 622 347 q 563 505 622 444 q 408 565 503 565 q 254 505 314 565 q 194 347 194 444 q 254 190 194 250 q 408 129 314 129 q 563 190 503 129 q 622 347 622 250 z "},"p":{"ha":843,"x_min":89,"x_max":803,"o":"m 89 694 l 239 694 l 239 596 q 342 682 281 653 q 478 711 403 711 q 647 665 572 711 q 762 537 721 619 q 803 347 803 454 q 762 158 803 240 q 647 29 721 75 q 479 -17 574 -17 q 239 100 331 -17 l 239 -278 l 89 -278 l 89 694 m 440 126 q 591 188 533 126 q 649 347 649 249 q 591 507 649 446 q 440 568 533 568 q 289 508 346 568 q 232 347 232 447 q 289 187 232 247 q 440 126 346 126 z "},"q":{"ha":844,"x_min":40,"x_max":754,"o":"m 603 100 q 364 -17 511 -17 q 196 29 269 -17 q 81 158 122 75 q 40 347 40 240 q 81 537 40 454 q 197 665 122 619 q 365 711 271 711 q 501 681 440 711 q 603 596 563 651 l 603 694 l 754 694 l 754 -278 l 603 -278 l 603 100 m 194 347 q 252 188 194 249 q 403 126 310 126 q 553 187 496 126 q 610 347 610 247 q 553 508 610 447 q 403 568 496 568 q 252 507 310 568 q 194 347 194 446 z "},"r":{"ha":526,"x_min":89,"x_max":506,"o":"m 233 585 q 438 711 300 711 q 506 703 472 711 l 506 543 q 429 553 464 553 q 284 493 329 553 q 239 318 239 433 l 239 0 l 89 0 l 89 694 l 233 694 l 233 585 z "},"s":{"ha":653,"x_min":32,"x_max":622,"o":"m 69 499 q 144 654 69 597 q 346 711 218 711 q 621 583 529 711 l 519 488 q 443 551 492 529 q 335 574 394 574 q 252 556 282 574 q 222 504 222 538 q 238 467 222 481 q 285 444 254 454 q 386 418 315 435 q 515 376 465 399 q 594 312 565 353 q 622 204 622 271 q 549 40 622 97 q 340 -17 475 -17 q 153 20 235 -17 q 32 124 72 57 l 135 222 q 221 147 167 174 q 351 119 275 119 q 439 139 408 119 q 469 196 469 158 q 455 235 469 221 q 410 260 440 250 q 315 283 381 269 q 135 354 201 308 q 69 499 69 400 z "},"t":{"ha":525,"x_min":19,"x_max":485,"o":"m 483 13 q 349 -7 417 -7 q 201 42 250 -7 q 151 203 151 92 l 151 567 l 19 567 l 19 694 l 151 694 l 151 881 l 301 881 l 301 694 l 485 694 l 485 567 l 301 567 l 301 213 q 319 157 301 175 q 376 139 336 139 q 483 150 413 139 l 483 13 z "},"u":{"ha":797,"x_min":89,"x_max":706,"o":"m 706 0 l 561 0 l 561 103 q 468 13 521 43 q 340 -17 415 -17 q 150 60 211 -17 q 89 274 89 138 l 89 694 l 243 694 l 243 294 q 274 169 243 211 q 381 126 306 126 q 515 192 474 126 q 556 367 556 257 l 556 694 l 706 694 l 706 0 z "},"v":{"ha":744,"x_min":6,"x_max":739,"o":"m 314 0 l 6 694 l 176 694 l 372 213 l 568 694 l 739 694 l 431 0 l 314 0 z "},"w":{"ha":1193,"x_min":6,"x_max":1188,"o":"m 289 0 l 6 694 l 172 694 l 349 228 l 539 694 l 654 694 l 844 228 l 1021 694 l 1188 694 l 904 0 l 790 0 l 596 457 l 403 0 l 289 0 z "},"x":{"ha":750,"x_min":13,"x_max":739,"o":"m 375 232 l 194 0 l 13 0 l 285 351 l 17 694 l 200 694 l 375 469 l 550 694 l 733 694 l 467 351 l 739 0 l 556 0 l 375 232 z "},"y":{"ha":738,"x_min":6,"x_max":738,"o":"m 133 -278 l 304 96 l 6 694 l 183 694 l 383 271 l 578 694 l 738 694 l 293 -278 l 133 -278 z "},"z":{"ha":651,"x_min":36,"x_max":614,"o":"m 601 694 l 601 569 l 232 139 l 614 139 l 614 0 l 36 0 l 36 125 l 404 556 l 54 556 l 54 694 l 601 694 z "},":":{"ha":446,"x_min":103,"x_max":343,"o":"m 222 711 q 308 676 274 711 q 343 590 343 642 q 308 505 343 539 q 222 471 274 471 q 137 505 171 471 q 103 590 103 539 q 137 676 103 642 q 222 711 171 711 m 222 240 q 308 206 274 240 q 343 119 343 171 q 308 34 343 68 q 222 0 274 0 q 137 34 171 0 q 103 119 103 68 q 137 206 103 171 q 222 240 171 240 z "},".":{"ha":446,"x_min":103,"x_max":343,"o":"m 222 240 q 308 206 274 240 q 343 119 343 171 q 308 34 343 68 q 222 0 274 0 q 137 34 171 0 q 103 119 103 68 q 137 206 103 171 q 222 240 171 240 z "},"-":{"ha":854,"x_min":103,"x_max":751,"o":"m 751 503 l 751 344 l 103 344 l 103 503 l 751 503 z "},"!":{"ha":454,"x_min":107,"x_max":347,"o":"m 147 321 l 147 972 l 306 972 l 306 321 l 147 321 m 226 240 q 313 206 278 240 q 347 119 347 171 q 313 34 347 68 q 226 0 278 0 q 141 34 175 0 q 107 119 107 68 q 141 206 107 171 q 226 240 175 240 z "},"?":{"ha":757,"x_min":65,"x_max":654,"o":"m 279 340 q 315 468 279 417 q 415 571 351 519 q 475 630 454 603 q 496 696 496 657 q 463 780 496 746 q 367 814 429 814 q 258 772 297 814 q 219 654 219 731 l 65 654 q 147 886 65 800 q 369 972 228 972 q 520 938 456 972 q 619 843 585 904 q 654 703 654 782 q 623 576 654 626 q 531 471 592 525 q 477 421 493 438 q 449 380 461 404 q 438 322 438 356 l 438 296 l 279 296 l 279 340 m 363 240 q 449 206 414 240 q 483 119 483 171 q 449 34 483 68 q 363 0 414 0 q 277 34 311 0 q 243 119 243 68 q 277 206 243 171 q 363 240 311 240 z "},"/":{"ha":883,"x_min":18,"x_max":865,"o":"m 749 1069 l 865 988 l 136 -86 l 18 -6 l 749 1069 z "},"|":{"ha":414,"x_min":139,"x_max":275,"o":"m 275 1057 l 275 -186 l 139 -186 l 139 1057 l 275 1057 z "},"(":{"ha":464,"x_min":92,"x_max":460,"o":"m 92 440 q 160 801 92 631 q 357 1101 229 971 l 460 1010 q 294 749 349 885 q 239 440 239 613 q 294 126 239 268 q 458 -140 350 -15 l 356 -232 q 161 74 231 -103 q 92 440 92 251 z "},")":{"ha":464,"x_min":6,"x_max":372,"o":"m 107 1101 q 303 801 235 971 q 372 440 372 631 q 303 74 372 251 q 108 -232 233 -103 l 6 -140 q 170 126 114 -15 q 226 440 226 268 q 171 749 226 613 q 6 1010 115 885 l 107 1101 z "},"[":{"ha":450,"x_min":144,"x_max":450,"o":"m 450 1057 l 450 926 l 283 926 l 283 -56 l 450 -56 l 450 -186 l 144 -186 l 144 1057 l 450 1057 z "},"]":{"ha":450,"x_min":0,"x_max":306,"o":"m 306 1057 l 306 -186 l 0 -186 l 0 -56 l 165 -56 l 165 926 l 0 926 l 0 1057 l 306 1057 z "},"{":{"ha":497,"x_min":61,"x_max":497,"o":"m 497 926 l 443 926 q 374 902 400 926 q 347 835 347 878 l 347 607 q 322 503 347 546 q 236 442 296 461 q 322 381 296 422 q 347 279 347 340 l 347 36 q 374 -31 347 -7 q 443 -56 400 -56 l 497 -56 l 497 -186 l 446 -186 q 210 32 210 -186 l 210 258 q 61 369 210 363 l 61 503 q 172 537 133 506 q 210 621 210 568 l 210 839 q 446 1057 210 1057 l 497 1057 l 497 926 z "},"}":{"ha":497,"x_min":0,"x_max":436,"o":"m 51 1057 q 288 839 288 1057 l 288 621 q 326 537 288 568 q 436 503 364 506 l 436 369 q 288 258 288 363 l 288 32 q 51 -186 288 -186 l 0 -186 l 0 -56 l 54 -56 q 124 -31 97 -56 q 150 36 150 -7 l 150 279 q 176 381 150 340 q 261 442 201 422 q 176 503 201 461 q 150 607 150 546 l 150 835 q 124 902 150 878 q 54 926 97 926 l 0 926 l 0 1057 l 51 1057 z "},"*":{"ha":622,"x_min":61,"x_max":561,"o":"m 368 986 l 368 822 l 522 874 l 561 764 l 403 714 l 499 582 l 408 513 l 310 644 l 214 513 l 122 582 l 217 714 l 61 764 l 99 874 l 253 822 l 253 986 l 368 986 z "},"\\":{"ha":883,"x_min":18,"x_max":865,"o":"m 135 1069 l 865 -6 l 747 -86 l 18 988 l 135 1069 z "},"'":{"ha":324,"x_min":97,"x_max":226,"o":"m 226 972 l 226 600 l 97 600 l 97 972 l 226 972 z "},"\"":{"ha":543,"x_min":97,"x_max":446,"o":"m 226 972 l 226 600 l 97 600 l 97 972 l 226 972 m 446 972 l 446 600 l 317 600 l 317 972 l 446 972 z "},"&":{"ha":1000,"x_min":104,"x_max":892,"o":"m 414 -17 q 247 19 317 -17 q 140 120 176 56 q 104 267 104 185 q 151 425 104 363 q 283 544 197 488 l 260 572 q 199 660 221 615 q 178 761 178 706 q 208 876 178 824 q 293 958 238 928 q 422 989 349 989 q 596 925 531 989 q 661 760 661 861 q 622 624 661 681 q 513 518 582 567 l 676 338 q 726 472 696 381 l 858 417 q 783 221 825 300 l 892 103 l 776 -3 l 688 96 q 414 -17 578 -17 m 415 624 q 484 686 460 654 q 508 758 508 718 q 484 824 508 800 q 422 847 460 847 q 360 823 385 847 q 335 761 335 799 q 347 712 335 735 q 381 661 358 689 l 415 624 m 417 132 q 586 208 519 132 l 381 439 q 287 360 315 396 q 258 274 258 324 q 299 172 258 211 q 417 132 339 132 z "},"@":{"ha":1321,"x_min":97,"x_max":1224,"o":"m 669 -151 q 372 -76 501 -151 q 169 128 242 -1 q 97 419 97 258 q 170 709 97 579 q 375 914 243 839 q 675 989 507 989 q 962 926 838 989 q 1155 749 1086 863 q 1224 490 1224 636 q 1156 225 1224 322 q 965 128 1088 128 q 869 152 906 128 q 814 229 832 176 q 735 153 783 181 q 625 126 688 126 q 480 178 535 126 q 425 308 425 231 q 476 432 425 386 q 601 485 528 478 l 776 501 q 753 578 776 556 q 675 601 731 601 q 588 580 626 601 q 539 514 550 558 l 433 572 q 518 681 458 642 q 674 721 578 721 q 849 661 792 721 q 907 499 907 601 l 907 324 q 923 268 907 288 q 968 249 939 249 q 1053 308 1022 249 q 1083 483 1083 367 q 1034 673 1083 589 q 892 806 985 757 q 674 854 800 854 q 446 798 544 854 q 293 642 347 742 q 239 419 239 543 q 292 194 239 294 q 444 38 346 94 q 669 -18 542 -18 q 961 35 817 -18 l 982 -96 q 669 -151 835 -151 m 640 244 q 738 281 699 244 q 778 368 778 318 l 778 394 l 622 375 q 575 354 592 372 q 558 310 558 336 q 579 263 558 282 q 640 244 600 244 z "},"^":{"ha":599,"x_min":28,"x_max":571,"o":"m 374 1010 l 571 657 l 447 594 l 299 863 l 151 594 l 28 657 l 224 1010 l 374 1010 z "},"$":{"ha":764,"x_min":65,"x_max":693,"o":"m 426 553 q 615 447 547 508 q 682 272 682 386 q 613 87 682 160 q 426 3 543 14 l 426 -111 l 336 -111 l 336 3 q 160 76 231 14 q 65 239 90 138 l 208 301 q 336 163 238 183 l 336 418 q 144 524 213 463 q 75 700 75 586 q 146 887 75 814 q 336 971 217 960 l 336 1083 l 426 1083 l 426 969 q 599 895 529 957 q 693 733 668 833 l 550 671 q 426 808 521 786 l 426 553 m 233 701 q 258 633 233 658 q 336 586 282 608 l 336 811 q 260 774 288 803 q 233 701 233 746 m 426 163 q 498 199 472 171 q 524 271 524 226 q 501 338 524 313 q 426 385 478 363 l 426 163 z "},"£":{"ha":853,"x_min":79,"x_max":829,"o":"m 829 126 q 716 33 781 67 q 547 0 651 0 l 90 0 l 90 143 q 206 275 206 158 l 206 451 l 79 451 l 79 554 l 206 554 l 206 692 q 278 894 206 817 q 485 972 350 972 q 640 929 574 972 q 743 822 706 886 l 628 718 q 569 792 606 764 q 489 819 532 819 q 397 783 429 819 q 364 682 364 747 l 364 554 l 619 554 l 619 451 l 364 451 l 364 281 q 347 199 364 232 q 306 154 329 167 l 547 154 q 753 264 675 154 l 829 126 z "},"%":{"ha":1144,"x_min":49,"x_max":1096,"o":"m 907 989 l 986 924 l 233 -17 l 154 49 l 907 989 m 274 972 q 388 942 336 972 q 469 861 439 913 q 499 747 499 810 q 469 633 499 685 q 388 552 439 582 q 274 522 336 522 q 160 552 211 522 q 78 633 108 582 q 49 747 49 685 q 78 861 49 810 q 160 942 108 913 q 274 972 211 972 m 390 747 q 358 831 390 799 q 274 864 325 864 q 190 831 222 864 q 157 747 157 799 q 190 663 157 696 q 274 631 222 631 q 358 663 325 631 q 390 747 390 696 m 646 225 q 676 339 646 288 q 757 420 706 390 q 871 450 808 450 q 985 420 933 450 q 1066 339 1036 390 q 1096 225 1096 288 q 1066 111 1096 163 q 985 30 1036 60 q 871 0 933 0 q 757 30 808 0 q 676 111 706 60 q 646 225 646 163 m 871 342 q 787 309 819 342 q 754 225 754 276 q 787 141 754 174 q 871 108 819 108 q 954 141 921 108 q 988 225 988 174 q 954 309 988 276 q 871 342 921 342 z "},"#":{"ha":817,"x_min":42,"x_max":775,"o":"m 464 285 l 300 285 l 258 0 l 147 0 l 188 285 l 42 285 l 57 393 l 204 393 l 231 586 l 83 586 l 100 696 l 246 696 l 286 972 l 399 972 l 358 696 l 522 696 l 563 972 l 675 972 l 635 696 l 775 696 l 760 586 l 619 586 l 592 393 l 732 393 l 717 285 l 576 285 l 535 0 l 424 0 l 464 285 m 507 586 l 343 586 l 315 393 l 481 393 l 507 586 z "},"+":{"ha":889,"x_min":81,"x_max":808,"o":"m 524 806 l 524 522 l 808 522 l 808 364 l 524 364 l 524 79 l 365 79 l 365 364 l 81 364 l 81 522 l 365 522 l 365 806 l 524 806 z "},"=":{"ha":889,"x_min":88,"x_max":801,"o":"m 801 644 l 801 486 l 88 486 l 88 644 l 801 644 m 801 333 l 801 175 l 88 175 l 88 333 l 801 333 z "}}}
